<mxfile host="app.diagrams.net" modified="2020-08-12T10:44:56.053Z" agent="5.0 (Macintosh; Intel Mac OS X 10_15_5) AppleWebKit/537.36 (KHTML, like Gecko) Chrome/84.0.4147.105 Safari/537.36" etag="nx7eDLGTFv3q6s4P-6_c" version="13.6.2" type="github">
  <diagram id="m_RS938VnZVgUHHCzECQ" name="Page-1">
    <mxGraphModel dx="1186" dy="693" grid="1" gridSize="10" guides="1" tooltips="1" connect="1" arrows="1" fold="1" page="1" pageScale="1" pageWidth="827" pageHeight="1169" math="0" shadow="0">
      <root>
        <mxCell id="0" />
        <mxCell id="1" parent="0" />
        <mxCell id="c2E5f1sLzkGwqA6hWmZ3-24" value="" style="edgeStyle=none;rounded=0;orthogonalLoop=1;jettySize=auto;html=1;" parent="1" source="c2E5f1sLzkGwqA6hWmZ3-22" target="c2E5f1sLzkGwqA6hWmZ3-23" edge="1">
          <mxGeometry relative="1" as="geometry" />
        </mxCell>
        <mxCell id="c2E5f1sLzkGwqA6hWmZ3-22" value="商家" style="shape=umlActor;verticalLabelPosition=bottom;verticalAlign=top;html=1;outlineConnect=0;" parent="1" vertex="1">
          <mxGeometry x="70" y="126" width="30" height="60" as="geometry" />
        </mxCell>
        <mxCell id="c2E5f1sLzkGwqA6hWmZ3-65" value="" style="edgeStyle=orthogonalEdgeStyle;rounded=0;orthogonalLoop=1;jettySize=auto;html=1;exitX=0.5;exitY=1;exitDx=0;exitDy=0;" parent="1" source="c2E5f1sLzkGwqA6hWmZ3-23" target="c2E5f1sLzkGwqA6hWmZ3-64" edge="1">
          <mxGeometry relative="1" as="geometry" />
        </mxCell>
        <mxCell id="c2E5f1sLzkGwqA6hWmZ3-23" value="&lt;br&gt;保存送检单" style="whiteSpace=wrap;html=1;verticalAlign=top;" parent="1" vertex="1">
          <mxGeometry x="135" y="130" width="120" height="50" as="geometry" />
        </mxCell>
        <mxCell id="c2E5f1sLzkGwqA6hWmZ3-32" value="" style="edgeStyle=none;rounded=0;orthogonalLoop=1;jettySize=auto;html=1;" parent="1" source="c2E5f1sLzkGwqA6hWmZ3-27" target="c2E5f1sLzkGwqA6hWmZ3-31" edge="1">
          <mxGeometry relative="1" as="geometry" />
        </mxCell>
        <mxCell id="c2E5f1sLzkGwqA6hWmZ3-33" value="无委托" style="edgeLabel;html=1;align=center;verticalAlign=middle;resizable=0;points=[];" parent="c2E5f1sLzkGwqA6hWmZ3-32" vertex="1" connectable="0">
          <mxGeometry x="-0.04" relative="1" as="geometry">
            <mxPoint as="offset" />
          </mxGeometry>
        </mxCell>
        <mxCell id="c2E5f1sLzkGwqA6hWmZ3-69" value="" style="edgeStyle=orthogonalEdgeStyle;rounded=0;orthogonalLoop=1;jettySize=auto;html=1;exitX=0.5;exitY=1;exitDx=0;exitDy=0;" parent="1" source="c2E5f1sLzkGwqA6hWmZ3-27" target="c2E5f1sLzkGwqA6hWmZ3-68" edge="1">
          <mxGeometry relative="1" as="geometry">
            <Array as="points">
              <mxPoint x="195" y="400" />
              <mxPoint x="640" y="400" />
            </Array>
          </mxGeometry>
        </mxCell>
        <mxCell id="c2E5f1sLzkGwqA6hWmZ3-27" value="&lt;br&gt;委托关系？" style="rhombus;whiteSpace=wrap;html=1;verticalAlign=top;" parent="1" vertex="1">
          <mxGeometry x="155" y="333.75" width="80" height="50" as="geometry" />
        </mxCell>
        <mxCell id="c2E5f1sLzkGwqA6hWmZ3-31" value="&lt;br&gt;异常" style="ellipse;whiteSpace=wrap;html=1;verticalAlign=top;" parent="1" vertex="1">
          <mxGeometry x="30" y="330" width="50" height="57.5" as="geometry" />
        </mxCell>
        <mxCell id="c2E5f1sLzkGwqA6hWmZ3-38" value="" style="edgeStyle=none;rounded=0;orthogonalLoop=1;jettySize=auto;html=1;dashed=1;" parent="1" source="c2E5f1sLzkGwqA6hWmZ3-35" target="c2E5f1sLzkGwqA6hWmZ3-37" edge="1">
          <mxGeometry relative="1" as="geometry" />
        </mxCell>
        <mxCell id="c2E5f1sLzkGwqA6hWmZ3-39" value="无需创建" style="edgeLabel;html=1;align=center;verticalAlign=middle;resizable=0;points=[];fontColor=#FF0000;labelBorderColor=none;" parent="c2E5f1sLzkGwqA6hWmZ3-38" vertex="1" connectable="0">
          <mxGeometry x="-0.3333" relative="1" as="geometry">
            <mxPoint x="10" as="offset" />
          </mxGeometry>
        </mxCell>
        <mxCell id="c2E5f1sLzkGwqA6hWmZ3-46" value="" style="edgeStyle=none;rounded=0;orthogonalLoop=1;jettySize=auto;html=1;" parent="1" source="c2E5f1sLzkGwqA6hWmZ3-35" target="c2E5f1sLzkGwqA6hWmZ3-45" edge="1">
          <mxGeometry relative="1" as="geometry" />
        </mxCell>
        <mxCell id="c2E5f1sLzkGwqA6hWmZ3-47" value="已创建" style="edgeLabel;html=1;align=center;verticalAlign=middle;resizable=0;points=[];" parent="c2E5f1sLzkGwqA6hWmZ3-46" vertex="1" connectable="0">
          <mxGeometry x="-0.2" relative="1" as="geometry">
            <mxPoint as="offset" />
          </mxGeometry>
        </mxCell>
        <mxCell id="c2E5f1sLzkGwqA6hWmZ3-35" value="&lt;br&gt;创建货主？" style="rhombus;whiteSpace=wrap;html=1;verticalAlign=top;" parent="1" vertex="1">
          <mxGeometry x="155" y="525" width="80" height="50" as="geometry" />
        </mxCell>
        <mxCell id="c2E5f1sLzkGwqA6hWmZ3-71" style="edgeStyle=orthogonalEdgeStyle;rounded=0;orthogonalLoop=1;jettySize=auto;html=1;exitX=0.5;exitY=1;exitDx=0;exitDy=0;entryX=0.5;entryY=0;entryDx=0;entryDy=0;fontColor=#FF0000;labelBorderColor=none;" parent="1" source="c2E5f1sLzkGwqA6hWmZ3-129" target="c2E5f1sLzkGwqA6hWmZ3-75" edge="1">
          <mxGeometry relative="1" as="geometry">
            <mxPoint x="400" y="690" as="sourcePoint" />
            <mxPoint x="640" y="730" as="targetPoint" />
            <Array as="points">
              <mxPoint x="400" y="680" />
              <mxPoint x="640" y="680" />
            </Array>
          </mxGeometry>
        </mxCell>
        <mxCell id="c2E5f1sLzkGwqA6hWmZ3-74" value="回调" style="edgeLabel;html=1;align=center;verticalAlign=middle;resizable=0;points=[];fontColor=#FF0000;labelBorderColor=none;" parent="c2E5f1sLzkGwqA6hWmZ3-71" vertex="1" connectable="0">
          <mxGeometry x="-0.332" y="-2" relative="1" as="geometry">
            <mxPoint as="offset" />
          </mxGeometry>
        </mxCell>
        <mxCell id="c2E5f1sLzkGwqA6hWmZ3-130" style="edgeStyle=orthogonalEdgeStyle;rounded=0;orthogonalLoop=1;jettySize=auto;html=1;exitX=0.5;exitY=1;exitDx=0;exitDy=0;entryX=1;entryY=0.5;entryDx=0;entryDy=0;fontColor=#FF0000;labelBorderColor=none;" parent="1" source="c2E5f1sLzkGwqA6hWmZ3-37" target="c2E5f1sLzkGwqA6hWmZ3-129" edge="1">
          <mxGeometry relative="1" as="geometry" />
        </mxCell>
        <mxCell id="c2E5f1sLzkGwqA6hWmZ3-131" value="运营中心开放平台" style="edgeLabel;html=1;align=center;verticalAlign=middle;resizable=0;points=[];fontColor=#FF0000;labelBorderColor=none;" parent="c2E5f1sLzkGwqA6hWmZ3-130" vertex="1" connectable="0">
          <mxGeometry x="-0.2089" y="-3" relative="1" as="geometry">
            <mxPoint as="offset" />
          </mxGeometry>
        </mxCell>
        <mxCell id="c2E5f1sLzkGwqA6hWmZ3-37" value="&lt;br&gt;创建货主" style="whiteSpace=wrap;html=1;verticalAlign=top;fontColor=#FF0000;labelBorderColor=none;" parent="1" vertex="1">
          <mxGeometry x="580" y="525" width="120" height="60" as="geometry" />
        </mxCell>
        <mxCell id="c2E5f1sLzkGwqA6hWmZ3-42" value="" style="endArrow=none;dashed=1;html=1;dashPattern=1 3;strokeWidth=2;" parent="1" edge="1">
          <mxGeometry width="50" height="50" relative="1" as="geometry">
            <mxPoint x="290" y="1000" as="sourcePoint" />
            <mxPoint x="290" y="40" as="targetPoint" />
          </mxGeometry>
        </mxCell>
        <mxCell id="c2E5f1sLzkGwqA6hWmZ3-43" value="盖亚商家操作平台" style="text;html=1;align=center;verticalAlign=middle;resizable=0;points=[];autosize=1;" parent="1" vertex="1">
          <mxGeometry x="140" y="70" width="110" height="20" as="geometry" />
        </mxCell>
        <mxCell id="c2E5f1sLzkGwqA6hWmZ3-44" value="运营中心" style="text;html=1;align=center;verticalAlign=middle;resizable=0;points=[];autosize=1;" parent="1" vertex="1">
          <mxGeometry x="370" y="70" width="60" height="20" as="geometry" />
        </mxCell>
        <mxCell id="c2E5f1sLzkGwqA6hWmZ3-55" style="edgeStyle=none;rounded=0;orthogonalLoop=1;jettySize=auto;html=1;exitX=0.5;exitY=1;exitDx=0;exitDy=0;entryX=0.5;entryY=0;entryDx=0;entryDy=0;" parent="1" source="c2E5f1sLzkGwqA6hWmZ3-45" target="c2E5f1sLzkGwqA6hWmZ3-54" edge="1">
          <mxGeometry relative="1" as="geometry" />
        </mxCell>
        <mxCell id="c2E5f1sLzkGwqA6hWmZ3-45" value="&lt;br&gt;入参合法性校验" style="whiteSpace=wrap;html=1;verticalAlign=top;" parent="1" vertex="1">
          <mxGeometry x="135" y="691.25" width="120" height="60" as="geometry" />
        </mxCell>
        <mxCell id="c2E5f1sLzkGwqA6hWmZ3-51" value="保存草稿和保存正文区分对待" style="shape=note;strokeWidth=2;fontSize=14;size=20;whiteSpace=wrap;html=1;fillColor=#fff2cc;strokeColor=#d6b656;fontColor=#666600;" parent="1" vertex="1">
          <mxGeometry x="10" y="669" width="110" height="82" as="geometry" />
        </mxCell>
        <mxCell id="c2E5f1sLzkGwqA6hWmZ3-56" style="edgeStyle=none;rounded=0;orthogonalLoop=1;jettySize=auto;html=1;exitX=0;exitY=0.5;exitDx=0;exitDy=0;entryX=1;entryY=0.5;entryDx=0;entryDy=0;" parent="1" source="c2E5f1sLzkGwqA6hWmZ3-54" target="c2E5f1sLzkGwqA6hWmZ3-57" edge="1">
          <mxGeometry relative="1" as="geometry">
            <mxPoint x="80" y="795" as="targetPoint" />
          </mxGeometry>
        </mxCell>
        <mxCell id="c2E5f1sLzkGwqA6hWmZ3-60" value="入参不通过" style="edgeLabel;html=1;align=center;verticalAlign=middle;resizable=0;points=[];" parent="c2E5f1sLzkGwqA6hWmZ3-56" vertex="1" connectable="0">
          <mxGeometry x="-0.2267" y="-3" relative="1" as="geometry">
            <mxPoint x="-6" y="3" as="offset" />
          </mxGeometry>
        </mxCell>
        <mxCell id="c2E5f1sLzkGwqA6hWmZ3-59" value="" style="edgeStyle=orthogonalEdgeStyle;rounded=0;orthogonalLoop=1;jettySize=auto;html=1;exitX=0.5;exitY=1;exitDx=0;exitDy=0;" parent="1" source="c2E5f1sLzkGwqA6hWmZ3-54" target="c2E5f1sLzkGwqA6hWmZ3-58" edge="1">
          <mxGeometry relative="1" as="geometry" />
        </mxCell>
        <mxCell id="c2E5f1sLzkGwqA6hWmZ3-61" value="通过" style="edgeLabel;html=1;align=center;verticalAlign=middle;resizable=0;points=[];" parent="c2E5f1sLzkGwqA6hWmZ3-59" vertex="1" connectable="0">
          <mxGeometry x="-0.269" relative="1" as="geometry">
            <mxPoint as="offset" />
          </mxGeometry>
        </mxCell>
        <mxCell id="c2E5f1sLzkGwqA6hWmZ3-54" value="&lt;br&gt;入参合法？" style="rhombus;whiteSpace=wrap;html=1;verticalAlign=top;" parent="1" vertex="1">
          <mxGeometry x="155" y="765" width="80" height="50" as="geometry" />
        </mxCell>
        <mxCell id="c2E5f1sLzkGwqA6hWmZ3-57" value="&lt;br&gt;异常" style="ellipse;whiteSpace=wrap;html=1;verticalAlign=top;" parent="1" vertex="1">
          <mxGeometry x="30" y="761.25" width="50" height="57.5" as="geometry" />
        </mxCell>
        <mxCell id="c2E5f1sLzkGwqA6hWmZ3-79" value="" style="edgeStyle=orthogonalEdgeStyle;rounded=0;orthogonalLoop=1;jettySize=auto;html=1;" parent="1" source="c2E5f1sLzkGwqA6hWmZ3-58" target="c2E5f1sLzkGwqA6hWmZ3-78" edge="1">
          <mxGeometry relative="1" as="geometry" />
        </mxCell>
        <mxCell id="c2E5f1sLzkGwqA6hWmZ3-58" value="保存送检单基础信息，保存草稿、保存正文，保存收货人、发货人信息" style="whiteSpace=wrap;html=1;verticalAlign=top;" parent="1" vertex="1">
          <mxGeometry x="760" y="865" width="120" height="65" as="geometry" />
        </mxCell>
        <mxCell id="c2E5f1sLzkGwqA6hWmZ3-62" value="" style="endArrow=none;dashed=1;html=1;dashPattern=1 3;strokeWidth=2;" parent="1" edge="1">
          <mxGeometry width="50" height="50" relative="1" as="geometry">
            <mxPoint x="530" y="990" as="sourcePoint" />
            <mxPoint x="530" y="40" as="targetPoint" />
          </mxGeometry>
        </mxCell>
        <mxCell id="c2E5f1sLzkGwqA6hWmZ3-63" value="商家基础服务" style="text;html=1;align=center;verticalAlign=middle;resizable=0;points=[];autosize=1;" parent="1" vertex="1">
          <mxGeometry x="595" y="70" width="90" height="20" as="geometry" />
        </mxCell>
        <mxCell id="c2E5f1sLzkGwqA6hWmZ3-66" style="edgeStyle=orthogonalEdgeStyle;rounded=0;orthogonalLoop=1;jettySize=auto;html=1;exitX=0.5;exitY=1;exitDx=0;exitDy=0;entryX=0.5;entryY=0;entryDx=0;entryDy=0;" parent="1" source="c2E5f1sLzkGwqA6hWmZ3-64" target="c2E5f1sLzkGwqA6hWmZ3-27" edge="1">
          <mxGeometry relative="1" as="geometry">
            <mxPoint x="640" y="310" as="sourcePoint" />
            <Array as="points">
              <mxPoint x="640" y="310" />
              <mxPoint x="195" y="310" />
            </Array>
          </mxGeometry>
        </mxCell>
        <mxCell id="c2E5f1sLzkGwqA6hWmZ3-64" value="&lt;br&gt;查询委托关系" style="whiteSpace=wrap;html=1;verticalAlign=top;" parent="1" vertex="1">
          <mxGeometry x="580" y="240" width="120" height="50" as="geometry" />
        </mxCell>
        <mxCell id="c2E5f1sLzkGwqA6hWmZ3-70" style="edgeStyle=orthogonalEdgeStyle;rounded=0;orthogonalLoop=1;jettySize=auto;html=1;exitX=0.5;exitY=1;exitDx=0;exitDy=0;entryX=0.5;entryY=0;entryDx=0;entryDy=0;" parent="1" source="c2E5f1sLzkGwqA6hWmZ3-68" target="c2E5f1sLzkGwqA6hWmZ3-35" edge="1">
          <mxGeometry relative="1" as="geometry" />
        </mxCell>
        <mxCell id="c2E5f1sLzkGwqA6hWmZ3-68" value="通过登陆态的venderId，查询货主信息" style="whiteSpace=wrap;html=1;verticalAlign=top;" parent="1" vertex="1">
          <mxGeometry x="580" y="420" width="120" height="60" as="geometry" />
        </mxCell>
        <mxCell id="c2E5f1sLzkGwqA6hWmZ3-72" value="" style="endArrow=none;dashed=1;html=1;dashPattern=1 3;strokeWidth=2;" parent="1" edge="1">
          <mxGeometry width="50" height="50" relative="1" as="geometry">
            <mxPoint x="740" y="990" as="sourcePoint" />
            <mxPoint x="740" y="40" as="targetPoint" />
          </mxGeometry>
        </mxCell>
        <mxCell id="c2E5f1sLzkGwqA6hWmZ3-73" value="质检基础服务" style="text;html=1;align=center;verticalAlign=middle;resizable=0;points=[];autosize=1;" parent="1" vertex="1">
          <mxGeometry x="775" y="70" width="90" height="20" as="geometry" />
        </mxCell>
        <mxCell id="c2E5f1sLzkGwqA6hWmZ3-76" style="edgeStyle=orthogonalEdgeStyle;rounded=0;orthogonalLoop=1;jettySize=auto;html=1;exitX=0;exitY=0.5;exitDx=0;exitDy=0;entryX=0.5;entryY=0;entryDx=0;entryDy=0;" parent="1" source="c2E5f1sLzkGwqA6hWmZ3-75" target="c2E5f1sLzkGwqA6hWmZ3-45" edge="1">
          <mxGeometry relative="1" as="geometry">
            <Array as="points">
              <mxPoint x="280" y="710" />
              <mxPoint x="280" y="660" />
              <mxPoint x="195" y="660" />
            </Array>
          </mxGeometry>
        </mxCell>
        <mxCell id="c2E5f1sLzkGwqA6hWmZ3-80" value="创建完成" style="edgeLabel;html=1;align=center;verticalAlign=middle;resizable=0;points=[];fontColor=#FF0000;labelBorderColor=none;" parent="c2E5f1sLzkGwqA6hWmZ3-76" vertex="1" connectable="0">
          <mxGeometry x="0.0154" y="-1" relative="1" as="geometry">
            <mxPoint as="offset" />
          </mxGeometry>
        </mxCell>
        <mxCell id="c2E5f1sLzkGwqA6hWmZ3-75" value="记录venderId和货主的关联" style="whiteSpace=wrap;html=1;verticalAlign=top;fontColor=#FF0000;labelBorderColor=none;" parent="1" vertex="1">
          <mxGeometry x="580" y="695" width="120" height="37" as="geometry" />
        </mxCell>
        <mxCell id="c2E5f1sLzkGwqA6hWmZ3-125" style="edgeStyle=orthogonalEdgeStyle;rounded=0;orthogonalLoop=1;jettySize=auto;html=1;exitX=0.5;exitY=1;exitDx=0;exitDy=0;" parent="1" source="c2E5f1sLzkGwqA6hWmZ3-78" target="c2E5f1sLzkGwqA6hWmZ3-124" edge="1">
          <mxGeometry relative="1" as="geometry" />
        </mxCell>
        <mxCell id="c2E5f1sLzkGwqA6hWmZ3-78" value="&lt;br&gt;接收保存结果" style="whiteSpace=wrap;html=1;verticalAlign=top;" parent="1" vertex="1">
          <mxGeometry x="135" y="867.5" width="120" height="60" as="geometry" />
        </mxCell>
        <mxCell id="c2E5f1sLzkGwqA6hWmZ3-81" value="" style="edgeStyle=none;rounded=0;orthogonalLoop=1;jettySize=auto;html=1;" parent="1" source="c2E5f1sLzkGwqA6hWmZ3-82" target="c2E5f1sLzkGwqA6hWmZ3-84" edge="1">
          <mxGeometry relative="1" as="geometry" />
        </mxCell>
        <mxCell id="c2E5f1sLzkGwqA6hWmZ3-82" value="商家" style="shape=umlActor;verticalLabelPosition=bottom;verticalAlign=top;html=1;outlineConnect=0;" parent="1" vertex="1">
          <mxGeometry x="1170" y="116" width="30" height="60" as="geometry" />
        </mxCell>
        <mxCell id="c2E5f1sLzkGwqA6hWmZ3-128" value="" style="edgeStyle=orthogonalEdgeStyle;rounded=0;orthogonalLoop=1;jettySize=auto;html=1;" parent="1" source="c2E5f1sLzkGwqA6hWmZ3-84" target="c2E5f1sLzkGwqA6hWmZ3-127" edge="1">
          <mxGeometry relative="1" as="geometry" />
        </mxCell>
        <mxCell id="c2E5f1sLzkGwqA6hWmZ3-84" value="&lt;br&gt;提交送检单物流信息" style="whiteSpace=wrap;html=1;verticalAlign=top;" parent="1" vertex="1">
          <mxGeometry x="1235" y="120" width="120" height="50" as="geometry" />
        </mxCell>
        <mxCell id="c2E5f1sLzkGwqA6hWmZ3-98" value="" style="endArrow=none;dashed=1;html=1;dashPattern=1 3;strokeWidth=2;" parent="1" edge="1">
          <mxGeometry width="50" height="50" relative="1" as="geometry">
            <mxPoint x="1390" y="1120" as="sourcePoint" />
            <mxPoint x="1390" y="29" as="targetPoint" />
          </mxGeometry>
        </mxCell>
        <mxCell id="c2E5f1sLzkGwqA6hWmZ3-99" value="盖亚商家操作平台" style="text;html=1;align=center;verticalAlign=middle;resizable=0;points=[];autosize=1;" parent="1" vertex="1">
          <mxGeometry x="1240" y="60" width="110" height="20" as="geometry" />
        </mxCell>
        <mxCell id="c2E5f1sLzkGwqA6hWmZ3-119" value="质检基础服务" style="text;html=1;align=center;verticalAlign=middle;resizable=0;points=[];autosize=1;" parent="1" vertex="1">
          <mxGeometry x="1445" y="60" width="90" height="20" as="geometry" />
        </mxCell>
        <mxCell id="c2E5f1sLzkGwqA6hWmZ3-124" value="&lt;br&gt;结束" style="ellipse;whiteSpace=wrap;html=1;verticalAlign=top;" parent="1" vertex="1">
          <mxGeometry x="170" y="952" width="50" height="57.5" as="geometry" />
        </mxCell>
        <mxCell id="c2E5f1sLzkGwqA6hWmZ3-126" value="入参非空，类目、品牌、型号合法值，类目属性合法值，质检属性合法值，货品信息合法值，质检信息合法值等" style="shape=note;strokeWidth=2;fontSize=14;size=20;whiteSpace=wrap;html=1;fillColor=#fff2cc;strokeColor=#d6b656;fontColor=#666600;" parent="1" vertex="1">
          <mxGeometry x="10" y="1290" width="110" height="140" as="geometry" />
        </mxCell>
        <mxCell id="c2E5f1sLzkGwqA6hWmZ3-135" value="" style="edgeStyle=orthogonalEdgeStyle;rounded=0;orthogonalLoop=1;jettySize=auto;html=1;" parent="1" source="c2E5f1sLzkGwqA6hWmZ3-127" target="c2E5f1sLzkGwqA6hWmZ3-134" edge="1">
          <mxGeometry relative="1" as="geometry" />
        </mxCell>
        <mxCell id="c2E5f1sLzkGwqA6hWmZ3-127" value="通过送检单id查询送检单信息" style="whiteSpace=wrap;html=1;verticalAlign=top;" parent="1" vertex="1">
          <mxGeometry x="1430" y="186" width="120" height="44" as="geometry" />
        </mxCell>
        <mxCell id="c2E5f1sLzkGwqA6hWmZ3-129" value="&lt;br&gt;通过vender信息创建货主信息" style="whiteSpace=wrap;html=1;verticalAlign=top;fontColor=#FF0000;labelBorderColor=none;" parent="1" vertex="1">
          <mxGeometry x="340" y="600" width="120" height="60" as="geometry" />
        </mxCell>
        <mxCell id="c2E5f1sLzkGwqA6hWmZ3-141" style="edgeStyle=orthogonalEdgeStyle;rounded=0;orthogonalLoop=1;jettySize=auto;html=1;exitX=0;exitY=0.5;exitDx=0;exitDy=0;entryX=1;entryY=0.5;entryDx=0;entryDy=0;" parent="1" source="c2E5f1sLzkGwqA6hWmZ3-134" target="c2E5f1sLzkGwqA6hWmZ3-188" edge="1">
          <mxGeometry relative="1" as="geometry">
            <mxPoint x="1180" y="268" as="targetPoint" />
          </mxGeometry>
        </mxCell>
        <mxCell id="c2E5f1sLzkGwqA6hWmZ3-177" value="非法" style="edgeLabel;html=1;align=center;verticalAlign=middle;resizable=0;points=[];fontColor=#000000;" parent="c2E5f1sLzkGwqA6hWmZ3-141" vertex="1" connectable="0">
          <mxGeometry x="-0.0545" relative="1" as="geometry">
            <mxPoint as="offset" />
          </mxGeometry>
        </mxCell>
        <mxCell id="c2E5f1sLzkGwqA6hWmZ3-143" value="" style="edgeStyle=orthogonalEdgeStyle;rounded=0;orthogonalLoop=1;jettySize=auto;html=1;exitX=0.5;exitY=1;exitDx=0;exitDy=0;" parent="1" source="c2E5f1sLzkGwqA6hWmZ3-134" target="c2E5f1sLzkGwqA6hWmZ3-142" edge="1">
          <mxGeometry relative="1" as="geometry" />
        </mxCell>
        <mxCell id="c2E5f1sLzkGwqA6hWmZ3-178" value="合法" style="edgeLabel;html=1;align=center;verticalAlign=middle;resizable=0;points=[];fontColor=#000000;" parent="c2E5f1sLzkGwqA6hWmZ3-143" vertex="1" connectable="0">
          <mxGeometry x="0.0894" y="2" relative="1" as="geometry">
            <mxPoint as="offset" />
          </mxGeometry>
        </mxCell>
        <mxCell id="c2E5f1sLzkGwqA6hWmZ3-134" value="&lt;br&gt;校验合法性" style="rhombus;whiteSpace=wrap;html=1;verticalAlign=top;" parent="1" vertex="1">
          <mxGeometry x="1235" y="235" width="120" height="65" as="geometry" />
        </mxCell>
        <mxCell id="c2E5f1sLzkGwqA6hWmZ3-139" value="&lt;br style=&quot;color: rgb(0 , 0 , 0) ; font-size: 12px&quot;&gt;&lt;span style=&quot;color: rgb(0 , 0 , 0) ; font-size: 12px&quot;&gt;检查送检单状态-待填写物流信息，校验送检单基本信息完整，校验物流信息入参正确&lt;/span&gt;" style="shape=note;strokeWidth=2;fontSize=14;size=20;whiteSpace=wrap;html=1;fillColor=#fff2cc;strokeColor=#d6b656;fontColor=#666600;" parent="1" vertex="1">
          <mxGeometry x="1010" y="217.5" width="110" height="100" as="geometry" />
        </mxCell>
        <mxCell id="c2E5f1sLzkGwqA6hWmZ3-145" value="" style="edgeStyle=orthogonalEdgeStyle;rounded=0;orthogonalLoop=1;jettySize=auto;html=1;entryX=0.5;entryY=0;entryDx=0;entryDy=0;" parent="1" source="c2E5f1sLzkGwqA6hWmZ3-142" target="c2E5f1sLzkGwqA6hWmZ3-148" edge="1">
          <mxGeometry relative="1" as="geometry">
            <mxPoint x="1290" y="420" as="targetPoint" />
          </mxGeometry>
        </mxCell>
        <mxCell id="c2E5f1sLzkGwqA6hWmZ3-142" value="&lt;br&gt;保存送检单物流信息" style="whiteSpace=wrap;html=1;verticalAlign=top;" parent="1" vertex="1">
          <mxGeometry x="1430" y="340" width="120" height="60" as="geometry" />
        </mxCell>
        <mxCell id="c2E5f1sLzkGwqA6hWmZ3-146" value="&lt;br&gt;异常" style="ellipse;whiteSpace=wrap;html=1;verticalAlign=top;" parent="1" vertex="1">
          <mxGeometry x="1130" y="402.5" width="60" height="60" as="geometry" />
        </mxCell>
        <mxCell id="c2E5f1sLzkGwqA6hWmZ3-149" style="edgeStyle=orthogonalEdgeStyle;rounded=0;orthogonalLoop=1;jettySize=auto;html=1;exitX=0;exitY=0.5;exitDx=0;exitDy=0;" parent="1" source="c2E5f1sLzkGwqA6hWmZ3-148" target="c2E5f1sLzkGwqA6hWmZ3-146" edge="1">
          <mxGeometry relative="1" as="geometry" />
        </mxCell>
        <mxCell id="c2E5f1sLzkGwqA6hWmZ3-150" value="&lt;font&gt;失败&lt;/font&gt;" style="edgeLabel;html=1;align=center;verticalAlign=middle;resizable=0;points=[];" parent="c2E5f1sLzkGwqA6hWmZ3-149" vertex="1" connectable="0">
          <mxGeometry x="-0.0025" y="-2" relative="1" as="geometry">
            <mxPoint y="-1" as="offset" />
          </mxGeometry>
        </mxCell>
        <mxCell id="c2E5f1sLzkGwqA6hWmZ3-152" value="" style="edgeStyle=orthogonalEdgeStyle;rounded=0;orthogonalLoop=1;jettySize=auto;html=1;" parent="1" source="c2E5f1sLzkGwqA6hWmZ3-148" target="c2E5f1sLzkGwqA6hWmZ3-151" edge="1">
          <mxGeometry relative="1" as="geometry" />
        </mxCell>
        <mxCell id="c2E5f1sLzkGwqA6hWmZ3-179" value="成功" style="edgeLabel;html=1;align=center;verticalAlign=middle;resizable=0;points=[];fontColor=#000000;" parent="c2E5f1sLzkGwqA6hWmZ3-152" vertex="1" connectable="0">
          <mxGeometry x="0.1111" y="4" relative="1" as="geometry">
            <mxPoint x="-4" y="-4" as="offset" />
          </mxGeometry>
        </mxCell>
        <mxCell id="c2E5f1sLzkGwqA6hWmZ3-148" value="&lt;br&gt;保存成功？" style="rhombus;whiteSpace=wrap;html=1;verticalAlign=top;" parent="1" vertex="1">
          <mxGeometry x="1230" y="400" width="120" height="65" as="geometry" />
        </mxCell>
        <mxCell id="c2E5f1sLzkGwqA6hWmZ3-154" value="" style="edgeStyle=orthogonalEdgeStyle;rounded=0;orthogonalLoop=1;jettySize=auto;html=1;" parent="1" source="c2E5f1sLzkGwqA6hWmZ3-151" target="c2E5f1sLzkGwqA6hWmZ3-153" edge="1">
          <mxGeometry relative="1" as="geometry" />
        </mxCell>
        <mxCell id="c2E5f1sLzkGwqA6hWmZ3-157" value="调用运营中心开放平台，网络失败自动重试" style="edgeLabel;html=1;align=center;verticalAlign=middle;resizable=0;points=[];" parent="c2E5f1sLzkGwqA6hWmZ3-154" vertex="1" connectable="0">
          <mxGeometry x="-0.15" y="3" relative="1" as="geometry">
            <mxPoint x="21" y="3" as="offset" />
          </mxGeometry>
        </mxCell>
        <mxCell id="c2E5f1sLzkGwqA6hWmZ3-151" value="&lt;br&gt;拼装送检服务单" style="whiteSpace=wrap;html=1;verticalAlign=top;" parent="1" vertex="1">
          <mxGeometry x="1230" y="500" width="120" height="60" as="geometry" />
        </mxCell>
        <mxCell id="c2E5f1sLzkGwqA6hWmZ3-160" value="" style="edgeStyle=orthogonalEdgeStyle;rounded=0;orthogonalLoop=1;jettySize=auto;html=1;fontColor=#000000;exitX=0.5;exitY=1;exitDx=0;exitDy=0;" parent="1" source="c2E5f1sLzkGwqA6hWmZ3-153" target="c2E5f1sLzkGwqA6hWmZ3-159" edge="1">
          <mxGeometry relative="1" as="geometry">
            <mxPoint x="1710" y="590" as="sourcePoint" />
          </mxGeometry>
        </mxCell>
        <mxCell id="c2E5f1sLzkGwqA6hWmZ3-153" value="&lt;br&gt;代质检订单创建" style="whiteSpace=wrap;html=1;verticalAlign=top;" parent="1" vertex="1">
          <mxGeometry x="1630" y="500" width="120" height="60" as="geometry" />
        </mxCell>
        <mxCell id="c2E5f1sLzkGwqA6hWmZ3-155" value="" style="endArrow=none;dashed=1;html=1;dashPattern=1 3;strokeWidth=2;" parent="1" edge="1">
          <mxGeometry width="50" height="50" relative="1" as="geometry">
            <mxPoint x="1590" y="1120" as="sourcePoint" />
            <mxPoint x="1590" y="34" as="targetPoint" />
          </mxGeometry>
        </mxCell>
        <mxCell id="c2E5f1sLzkGwqA6hWmZ3-156" value="运营中心" style="text;html=1;align=center;verticalAlign=middle;resizable=0;points=[];autosize=1;" parent="1" vertex="1">
          <mxGeometry x="1660" y="60" width="60" height="20" as="geometry" />
        </mxCell>
        <mxCell id="c2E5f1sLzkGwqA6hWmZ3-163" value="" style="edgeStyle=orthogonalEdgeStyle;rounded=0;orthogonalLoop=1;jettySize=auto;html=1;fontColor=#000000;" parent="1" source="c2E5f1sLzkGwqA6hWmZ3-159" target="c2E5f1sLzkGwqA6hWmZ3-162" edge="1">
          <mxGeometry relative="1" as="geometry" />
        </mxCell>
        <mxCell id="c2E5f1sLzkGwqA6hWmZ3-181" style="edgeStyle=orthogonalEdgeStyle;rounded=0;orthogonalLoop=1;jettySize=auto;html=1;exitX=0;exitY=0.5;exitDx=0;exitDy=0;entryX=0;entryY=0.5;entryDx=0;entryDy=0;fontColor=#000000;" parent="1" source="c2E5f1sLzkGwqA6hWmZ3-159" target="c2E5f1sLzkGwqA6hWmZ3-151" edge="1">
          <mxGeometry relative="1" as="geometry" />
        </mxCell>
        <mxCell id="c2E5f1sLzkGwqA6hWmZ3-182" value="失败，重试" style="edgeLabel;html=1;align=center;verticalAlign=middle;resizable=0;points=[];fontColor=#000000;" parent="c2E5f1sLzkGwqA6hWmZ3-181" vertex="1" connectable="0">
          <mxGeometry x="-0.2645" y="2" relative="1" as="geometry">
            <mxPoint y="-23" as="offset" />
          </mxGeometry>
        </mxCell>
        <mxCell id="c2E5f1sLzkGwqA6hWmZ3-183" value="成功" style="edgeStyle=orthogonalEdgeStyle;rounded=0;orthogonalLoop=1;jettySize=auto;html=1;fontColor=#000000;" parent="1" source="c2E5f1sLzkGwqA6hWmZ3-159" target="c2E5f1sLzkGwqA6hWmZ3-162" edge="1">
          <mxGeometry relative="1" as="geometry" />
        </mxCell>
        <mxCell id="c2E5f1sLzkGwqA6hWmZ3-159" value="&lt;br&gt;接收服务单" style="rhombus;whiteSpace=wrap;html=1;verticalAlign=top;" parent="1" vertex="1">
          <mxGeometry x="1235" y="610" width="120" height="60" as="geometry" />
        </mxCell>
        <mxCell id="c2E5f1sLzkGwqA6hWmZ3-168" value="" style="edgeStyle=orthogonalEdgeStyle;rounded=0;orthogonalLoop=1;jettySize=auto;html=1;fontColor=#000000;" parent="1" source="c2E5f1sLzkGwqA6hWmZ3-162" target="c2E5f1sLzkGwqA6hWmZ3-167" edge="1">
          <mxGeometry relative="1" as="geometry">
            <Array as="points">
              <mxPoint x="1490" y="700" />
              <mxPoint x="1295" y="700" />
            </Array>
          </mxGeometry>
        </mxCell>
        <mxCell id="c2E5f1sLzkGwqA6hWmZ3-162" value="&lt;br&gt;保存外部服务单号" style="whiteSpace=wrap;html=1;verticalAlign=top;" parent="1" vertex="1">
          <mxGeometry x="1430" y="610" width="120" height="60" as="geometry" />
        </mxCell>
        <mxCell id="c2E5f1sLzkGwqA6hWmZ3-171" value="" style="edgeStyle=orthogonalEdgeStyle;rounded=0;orthogonalLoop=1;jettySize=auto;html=1;fontColor=#000000;" parent="1" source="c2E5f1sLzkGwqA6hWmZ3-167" target="c2E5f1sLzkGwqA6hWmZ3-170" edge="1">
          <mxGeometry relative="1" as="geometry" />
        </mxCell>
        <mxCell id="c2E5f1sLzkGwqA6hWmZ3-176" value="调用运营中心开放平台，网络失败自动重试" style="edgeLabel;html=1;align=center;verticalAlign=middle;resizable=0;points=[];fontColor=#000000;" parent="c2E5f1sLzkGwqA6hWmZ3-171" vertex="1" connectable="0">
          <mxGeometry x="0.0109" y="1" relative="1" as="geometry">
            <mxPoint as="offset" />
          </mxGeometry>
        </mxCell>
        <mxCell id="c2E5f1sLzkGwqA6hWmZ3-167" value="&lt;br&gt;拼装物流信息" style="whiteSpace=wrap;html=1;verticalAlign=top;" parent="1" vertex="1">
          <mxGeometry x="1235" y="732" width="120" height="60" as="geometry" />
        </mxCell>
        <mxCell id="c2E5f1sLzkGwqA6hWmZ3-173" value="" style="edgeStyle=orthogonalEdgeStyle;rounded=0;orthogonalLoop=1;jettySize=auto;html=1;fontColor=#000000;" parent="1" source="c2E5f1sLzkGwqA6hWmZ3-170" target="c2E5f1sLzkGwqA6hWmZ3-172" edge="1">
          <mxGeometry relative="1" as="geometry">
            <Array as="points">
              <mxPoint x="1690" y="810" />
              <mxPoint x="1295" y="810" />
            </Array>
          </mxGeometry>
        </mxCell>
        <mxCell id="c2E5f1sLzkGwqA6hWmZ3-170" value="&lt;br&gt;运营中心确认发货" style="whiteSpace=wrap;html=1;verticalAlign=top;" parent="1" vertex="1">
          <mxGeometry x="1630" y="732" width="120" height="60" as="geometry" />
        </mxCell>
        <mxCell id="c2E5f1sLzkGwqA6hWmZ3-184" style="edgeStyle=orthogonalEdgeStyle;rounded=0;orthogonalLoop=1;jettySize=auto;html=1;exitX=0;exitY=0.5;exitDx=0;exitDy=0;entryX=0;entryY=0.5;entryDx=0;entryDy=0;fontColor=#000000;" parent="1" source="c2E5f1sLzkGwqA6hWmZ3-172" target="c2E5f1sLzkGwqA6hWmZ3-167" edge="1">
          <mxGeometry relative="1" as="geometry" />
        </mxCell>
        <mxCell id="c2E5f1sLzkGwqA6hWmZ3-185" value="失败，重试" style="edgeLabel;html=1;align=center;verticalAlign=middle;resizable=0;points=[];fontColor=#000000;" parent="c2E5f1sLzkGwqA6hWmZ3-184" vertex="1" connectable="0">
          <mxGeometry x="-0.1449" y="-2" relative="1" as="geometry">
            <mxPoint y="-6" as="offset" />
          </mxGeometry>
        </mxCell>
        <mxCell id="c2E5f1sLzkGwqA6hWmZ3-192" value="" style="edgeStyle=orthogonalEdgeStyle;rounded=0;orthogonalLoop=1;jettySize=auto;html=1;fontColor=#000000;" parent="1" source="c2E5f1sLzkGwqA6hWmZ3-172" target="c2E5f1sLzkGwqA6hWmZ3-191" edge="1">
          <mxGeometry relative="1" as="geometry">
            <Array as="points">
              <mxPoint x="1295" y="920" />
            </Array>
          </mxGeometry>
        </mxCell>
        <mxCell id="c2E5f1sLzkGwqA6hWmZ3-172" value="&lt;br&gt;接收结果" style="rhombus;whiteSpace=wrap;html=1;verticalAlign=top;" parent="1" vertex="1">
          <mxGeometry x="1235" y="830" width="120" height="60" as="geometry" />
        </mxCell>
        <mxCell id="c2E5f1sLzkGwqA6hWmZ3-188" value="&lt;br&gt;异常" style="ellipse;whiteSpace=wrap;html=1;verticalAlign=top;" parent="1" vertex="1">
          <mxGeometry x="1130" y="237.5" width="60" height="60" as="geometry" />
        </mxCell>
        <mxCell id="c2E5f1sLzkGwqA6hWmZ3-195" value="" style="edgeStyle=orthogonalEdgeStyle;rounded=0;orthogonalLoop=1;jettySize=auto;html=1;fontColor=#000000;" parent="1" source="c2E5f1sLzkGwqA6hWmZ3-191" target="c2E5f1sLzkGwqA6hWmZ3-194" edge="1">
          <mxGeometry relative="1" as="geometry">
            <Array as="points">
              <mxPoint x="1490" y="960" />
              <mxPoint x="1295" y="960" />
            </Array>
          </mxGeometry>
        </mxCell>
        <mxCell id="c2E5f1sLzkGwqA6hWmZ3-191" value="&lt;br&gt;更新送检单物流信息" style="whiteSpace=wrap;html=1;verticalAlign=top;" parent="1" vertex="1">
          <mxGeometry x="1430" y="890" width="120" height="60" as="geometry" />
        </mxCell>
        <mxCell id="c2E5f1sLzkGwqA6hWmZ3-193" value="&lt;br&gt;结束" style="ellipse;whiteSpace=wrap;html=1;verticalAlign=top;" parent="1" vertex="1">
          <mxGeometry x="1265" y="1070" width="60" height="60" as="geometry" />
        </mxCell>
        <mxCell id="c2E5f1sLzkGwqA6hWmZ3-196" style="edgeStyle=orthogonalEdgeStyle;rounded=0;orthogonalLoop=1;jettySize=auto;html=1;exitX=0.5;exitY=1;exitDx=0;exitDy=0;entryX=0.5;entryY=0;entryDx=0;entryDy=0;fontColor=#000000;" parent="1" source="c2E5f1sLzkGwqA6hWmZ3-194" target="c2E5f1sLzkGwqA6hWmZ3-193" edge="1">
          <mxGeometry relative="1" as="geometry" />
        </mxCell>
        <mxCell id="c2E5f1sLzkGwqA6hWmZ3-194" value="&lt;br&gt;创建服务单成功" style="whiteSpace=wrap;html=1;verticalAlign=top;" parent="1" vertex="1">
          <mxGeometry x="1235" y="980" width="120" height="60" as="geometry" />
        </mxCell>
        <mxCell id="JL65pWGA0v_3Y49u0g8W-1" value="" style="endArrow=none;dashed=1;html=1;dashPattern=1 3;strokeWidth=2;" parent="1" edge="1">
          <mxGeometry width="50" height="50" relative="1" as="geometry">
            <mxPoint x="2570" y="697.5" as="sourcePoint" />
            <mxPoint x="2570" y="42.5" as="targetPoint" />
          </mxGeometry>
        </mxCell>
        <mxCell id="JL65pWGA0v_3Y49u0g8W-2" value="盖亚商家操作平台" style="text;html=1;align=center;verticalAlign=middle;resizable=0;points=[];autosize=1;" parent="1" vertex="1">
          <mxGeometry x="2225" y="50" width="110" height="20" as="geometry" />
        </mxCell>
        <mxCell id="JL65pWGA0v_3Y49u0g8W-3" value="质检基础服务" style="text;html=1;align=center;verticalAlign=middle;resizable=0;points=[];autosize=1;" parent="1" vertex="1">
          <mxGeometry x="2420" y="50" width="90" height="20" as="geometry" />
        </mxCell>
        <mxCell id="JL65pWGA0v_3Y49u0g8W-4" value="" style="endArrow=none;dashed=1;html=1;dashPattern=1 3;strokeWidth=2;" parent="1" edge="1">
          <mxGeometry width="50" height="50" relative="1" as="geometry">
            <mxPoint x="2380" y="696" as="sourcePoint" />
            <mxPoint x="2380" y="44" as="targetPoint" />
          </mxGeometry>
        </mxCell>
        <mxCell id="JL65pWGA0v_3Y49u0g8W-5" value="运营中心" style="text;html=1;align=center;verticalAlign=middle;resizable=0;points=[];autosize=1;" parent="1" vertex="1">
          <mxGeometry x="2640" y="50" width="60" height="20" as="geometry" />
        </mxCell>
        <mxCell id="JL65pWGA0v_3Y49u0g8W-8" value="&lt;span style=&quot;font-size: 20px&quot;&gt;提交送检草稿、保存送检单基本信息&lt;/span&gt;" style="text;html=1;align=center;verticalAlign=middle;resizable=0;points=[];autosize=1;" parent="1" vertex="1">
          <mxGeometry x="300" y="20" width="340" height="20" as="geometry" />
        </mxCell>
        <mxCell id="JL65pWGA0v_3Y49u0g8W-9" value="&lt;span style=&quot;font-size: 20px&quot;&gt;提交物流信息，远端创建代质检服务订单&lt;/span&gt;" style="text;html=1;align=center;verticalAlign=middle;resizable=0;points=[];autosize=1;" parent="1" vertex="1">
          <mxGeometry x="1280" y="20" width="380" height="20" as="geometry" />
        </mxCell>
        <mxCell id="JL65pWGA0v_3Y49u0g8W-10" value="&lt;span style=&quot;font-size: 20px&quot;&gt;接收运营中心物流结果&lt;/span&gt;" style="text;html=1;align=center;verticalAlign=middle;resizable=0;points=[];autosize=1;" parent="1" vertex="1">
          <mxGeometry x="2360" y="20" width="220" height="20" as="geometry" />
        </mxCell>
        <mxCell id="JL65pWGA0v_3Y49u0g8W-11" value="" style="edgeStyle=none;rounded=0;orthogonalLoop=1;jettySize=auto;html=1;" parent="1" source="JL65pWGA0v_3Y49u0g8W-12" target="JL65pWGA0v_3Y49u0g8W-13" edge="1">
          <mxGeometry relative="1" as="geometry" />
        </mxCell>
        <mxCell id="JL65pWGA0v_3Y49u0g8W-12" value="商家" style="shape=umlActor;verticalLabelPosition=bottom;verticalAlign=top;html=1;outlineConnect=0;" parent="1" vertex="1">
          <mxGeometry x="2600" y="110" width="30" height="60" as="geometry" />
        </mxCell>
        <mxCell id="JL65pWGA0v_3Y49u0g8W-15" value="" style="edgeStyle=orthogonalEdgeStyle;rounded=0;orthogonalLoop=1;jettySize=auto;html=1;" parent="1" source="JL65pWGA0v_3Y49u0g8W-13" target="JL65pWGA0v_3Y49u0g8W-14" edge="1">
          <mxGeometry relative="1" as="geometry" />
        </mxCell>
        <mxCell id="JL65pWGA0v_3Y49u0g8W-13" value="&lt;br&gt;线下收货" style="whiteSpace=wrap;html=1;verticalAlign=top;" parent="1" vertex="1">
          <mxGeometry x="2665" y="114" width="120" height="50" as="geometry" />
        </mxCell>
        <mxCell id="JL65pWGA0v_3Y49u0g8W-26" value="" style="edgeStyle=orthogonalEdgeStyle;rounded=0;orthogonalLoop=1;jettySize=auto;html=1;" parent="1" source="JL65pWGA0v_3Y49u0g8W-14" target="JL65pWGA0v_3Y49u0g8W-25" edge="1">
          <mxGeometry relative="1" as="geometry" />
        </mxCell>
        <mxCell id="JL65pWGA0v_3Y49u0g8W-14" value="发起收货通知（服务单号、收货数量、物品编号）" style="whiteSpace=wrap;html=1;verticalAlign=top;" parent="1" vertex="1">
          <mxGeometry x="2665" y="200" width="120" height="60" as="geometry" />
        </mxCell>
        <mxCell id="JL65pWGA0v_3Y49u0g8W-19" value="" style="edgeStyle=orthogonalEdgeStyle;rounded=0;orthogonalLoop=1;jettySize=auto;html=1;" parent="1" source="JL65pWGA0v_3Y49u0g8W-16" target="JL65pWGA0v_3Y49u0g8W-18" edge="1">
          <mxGeometry relative="1" as="geometry">
            <Array as="points">
              <mxPoint x="2280" y="390" />
              <mxPoint x="2465" y="390" />
            </Array>
          </mxGeometry>
        </mxCell>
        <mxCell id="JL65pWGA0v_3Y49u0g8W-31" value="异步" style="edgeLabel;html=1;align=center;verticalAlign=middle;resizable=0;points=[];" parent="JL65pWGA0v_3Y49u0g8W-19" vertex="1" connectable="0">
          <mxGeometry x="0.1613" y="4" relative="1" as="geometry">
            <mxPoint as="offset" />
          </mxGeometry>
        </mxCell>
        <mxCell id="JL65pWGA0v_3Y49u0g8W-21" value="" style="edgeStyle=orthogonalEdgeStyle;rounded=0;orthogonalLoop=1;jettySize=auto;html=1;" parent="1" source="JL65pWGA0v_3Y49u0g8W-16" target="JL65pWGA0v_3Y49u0g8W-20" edge="1">
          <mxGeometry relative="1" as="geometry">
            <Array as="points">
              <mxPoint x="2280" y="510" />
              <mxPoint x="2465" y="510" />
            </Array>
          </mxGeometry>
        </mxCell>
        <mxCell id="JL65pWGA0v_3Y49u0g8W-32" value="异步" style="edgeLabel;html=1;align=center;verticalAlign=middle;resizable=0;points=[];" parent="JL65pWGA0v_3Y49u0g8W-21" vertex="1" connectable="0">
          <mxGeometry x="0.4085" y="1" relative="1" as="geometry">
            <mxPoint x="10" as="offset" />
          </mxGeometry>
        </mxCell>
        <mxCell id="JL65pWGA0v_3Y49u0g8W-24" style="edgeStyle=orthogonalEdgeStyle;rounded=0;orthogonalLoop=1;jettySize=auto;html=1;exitX=0.5;exitY=1;exitDx=0;exitDy=0;" parent="1" source="JL65pWGA0v_3Y49u0g8W-16" target="JL65pWGA0v_3Y49u0g8W-23" edge="1">
          <mxGeometry relative="1" as="geometry" />
        </mxCell>
        <mxCell id="JL65pWGA0v_3Y49u0g8W-16" value="&lt;br&gt;接收收货信息" style="whiteSpace=wrap;html=1;verticalAlign=top;" parent="1" vertex="1">
          <mxGeometry x="2220" y="310" width="120" height="60" as="geometry" />
        </mxCell>
        <mxCell id="JL65pWGA0v_3Y49u0g8W-18" value="&lt;br&gt;更新送检单状态" style="whiteSpace=wrap;html=1;verticalAlign=top;" parent="1" vertex="1">
          <mxGeometry x="2405" y="417.5" width="120" height="60" as="geometry" />
        </mxCell>
        <mxCell id="JL65pWGA0v_3Y49u0g8W-20" value="&lt;br&gt;更新送检单详情，生成n条物品" style="whiteSpace=wrap;html=1;verticalAlign=top;" parent="1" vertex="1">
          <mxGeometry x="2405" y="540" width="120" height="60" as="geometry" />
        </mxCell>
        <mxCell id="JL65pWGA0v_3Y49u0g8W-22" value="&lt;br&gt;异常" style="ellipse;whiteSpace=wrap;html=1;verticalAlign=top;" parent="1" vertex="1">
          <mxGeometry x="2320" y="400" width="60" height="60" as="geometry" />
        </mxCell>
        <mxCell id="JL65pWGA0v_3Y49u0g8W-23" value="&lt;br&gt;结束" style="ellipse;whiteSpace=wrap;html=1;verticalAlign=top;" parent="1" vertex="1">
          <mxGeometry x="2250" y="600" width="60" height="60" as="geometry" />
        </mxCell>
        <mxCell id="JL65pWGA0v_3Y49u0g8W-28" value="不存在" style="edgeStyle=orthogonalEdgeStyle;rounded=0;orthogonalLoop=1;jettySize=auto;html=1;exitX=0;exitY=0.5;exitDx=0;exitDy=0;entryX=1;entryY=0.5;entryDx=0;entryDy=0;" parent="1" source="JL65pWGA0v_3Y49u0g8W-25" target="JL65pWGA0v_3Y49u0g8W-27" edge="1">
          <mxGeometry relative="1" as="geometry" />
        </mxCell>
        <mxCell id="JL65pWGA0v_3Y49u0g8W-29" value="存在" style="edgeStyle=orthogonalEdgeStyle;rounded=0;orthogonalLoop=1;jettySize=auto;html=1;exitX=0.5;exitY=1;exitDx=0;exitDy=0;entryX=0.5;entryY=0;entryDx=0;entryDy=0;" parent="1" source="JL65pWGA0v_3Y49u0g8W-25" target="JL65pWGA0v_3Y49u0g8W-16" edge="1">
          <mxGeometry relative="1" as="geometry" />
        </mxCell>
        <mxCell id="JL65pWGA0v_3Y49u0g8W-25" value="&lt;br&gt;校验服务单号是否存在" style="rhombus;whiteSpace=wrap;html=1;verticalAlign=top;" parent="1" vertex="1">
          <mxGeometry x="2220" y="200" width="120" height="60" as="geometry" />
        </mxCell>
        <mxCell id="JL65pWGA0v_3Y49u0g8W-27" value="&lt;br&gt;异常" style="ellipse;whiteSpace=wrap;html=1;verticalAlign=top;" parent="1" vertex="1">
          <mxGeometry x="2068" y="200" width="60" height="60" as="geometry" />
        </mxCell>
      </root>
    </mxGraphModel>
  </diagram>
</mxfile>
